<?xml version="1.0" encoding="UTF-8" standalone="no"?>
<!-- Created with Inkscape (http://www.inkscape.org/) -->

<svg
   xmlns:dc="http://purl.org/dc/elements/1.1/"
   xmlns:cc="http://creativecommons.org/ns#"
   xmlns:rdf="http://www.w3.org/1999/02/22-rdf-syntax-ns#"
   xmlns:svg="http://www.w3.org/2000/svg"
   xmlns="http://www.w3.org/2000/svg"
   xmlns:sodipodi="http://sodipodi.sourceforge.net/DTD/sodipodi-0.dtd"
   xmlns:inkscape="http://www.inkscape.org/namespaces/inkscape"
   width="400"
   height="400"
   id="svg2"
   version="1.1"
   inkscape:version="0.48.4 r9939"
   sodipodi:docname="New document 1">
  <defs
     id="defs4" />
  <sodipodi:namedview
     id="base"
     pagecolor="#ffffff"
     bordercolor="#666666"
     borderopacity="1.0"
     inkscape:pageopacity="0.0"
     inkscape:pageshadow="2"
     inkscape:zoom="1"
     inkscape:cx="215"
     inkscape:cy="237.06587"
     inkscape:document-units="px"
     inkscape:current-layer="g4024"
     showgrid="false"
     inkscape:window-width="1920"
     inkscape:window-height="1028"
     inkscape:window-x="0"
     inkscape:window-y="0"
     inkscape:window-maximized="1" />
  <metadata
     id="metadata7">
    <rdf:RDF>
      <cc:Work
         rdf:about="">
        <dc:format>image/svg+xml</dc:format>
        <dc:type
           rdf:resource="http://purl.org/dc/dcmitype/StillImage" />
        <dc:title></dc:title>
      </cc:Work>
    </rdf:RDF>
  </metadata>
  <g
     inkscape:label="Layer 1"
     inkscape:groupmode="layer"
     id="layer1"
     transform="translate(0,-652.36218)">
    <g
       id="g4024"
       transform="translate(59.829542,-102.97946)">
      <path
         transform="matrix(0.67420814,0,0,0.67420814,-146.7956,469.58825)"
         d="m 271,453.5 a 54.5,54.5 0 1 1 -109,0 54.5,54.5 0 1 1 109,0 z"
         sodipodi:ry="54.5"
         sodipodi:rx="54.5"
         sodipodi:cy="453.5"
         sodipodi:cx="216.5"
         id="path3990-2"
         style="fill:#ffffff;fill-opacity:1;fill-rule:nonzero;stroke:#000000;stroke-width:1.5;stroke-miterlimit:4;stroke-opacity:1;stroke-dasharray:none"
         sodipodi:type="arc" />
      <path
         transform="matrix(0.67420814,0,0,0.67420814,-153.46606,531.10879)"
         d="m 271,453.5 a 54.5,54.5 0 1 1 -109,0 54.5,54.5 0 1 1 109,0 z"
         sodipodi:ry="54.5"
         sodipodi:rx="54.5"
         sodipodi:cy="453.5"
         sodipodi:cx="216.5"
         id="path3990"
         style="fill:#ffffff;fill-opacity:1;fill-rule:nonzero;stroke:#000000;stroke-width:1.5;stroke-miterlimit:4;stroke-opacity:1;stroke-dasharray:none"
         sodipodi:type="arc" />
      <path
         transform="matrix(0.67420814,0,0,0.67420814,-85.7956,486.58825)"
         d="m 271,453.5 a 54.5,54.5 0 1 1 -109,0 54.5,54.5 0 1 1 109,0 z"
         sodipodi:ry="54.5"
         sodipodi:rx="54.5"
         sodipodi:cy="453.5"
         sodipodi:cx="216.5"
         id="path3990-9"
         style="fill:#ffffff;fill-opacity:1;fill-rule:nonzero;stroke:#000000;stroke-width:1.5;stroke-miterlimit:4;stroke-opacity:1;stroke-dasharray:none"
         sodipodi:type="arc" />
      <path
         transform="matrix(0.67420814,0,0,0.67420814,-13.795604,475.58825)"
         d="m 271,453.5 a 54.5,54.5 0 1 1 -109,0 54.5,54.5 0 1 1 109,0 z"
         sodipodi:ry="54.5"
         sodipodi:rx="54.5"
         sodipodi:cy="453.5"
         sodipodi:cx="216.5"
         id="path3990-3"
         style="fill:#ffffff;fill-opacity:1;fill-rule:nonzero;stroke:#000000;stroke-width:1.5;stroke-miterlimit:4;stroke-opacity:1;stroke-dasharray:none"
         sodipodi:type="arc" />
      <path
         transform="matrix(0.67420814,0,0,0.67420814,52.204396,493.58825)"
         d="m 271,453.5 a 54.5,54.5 0 1 1 -109,0 54.5,54.5 0 1 1 109,0 z"
         sodipodi:ry="54.5"
         sodipodi:rx="54.5"
         sodipodi:cy="453.5"
         sodipodi:cx="216.5"
         id="path3990-6"
         style="fill:#ffffff;fill-opacity:1;fill-rule:nonzero;stroke:#000000;stroke-width:1.5;stroke-miterlimit:4;stroke-opacity:1;stroke-dasharray:none"
         sodipodi:type="arc" />
      <path
         transform="matrix(0.67420814,0,0,0.67420814,114.2044,529.58825)"
         d="m 271,453.5 a 54.5,54.5 0 1 1 -109,0 54.5,54.5 0 1 1 109,0 z"
         sodipodi:ry="54.5"
         sodipodi:rx="54.5"
         sodipodi:cy="453.5"
         sodipodi:cx="216.5"
         id="path3990-33"
         style="fill:#ffffff;fill-opacity:1;fill-rule:nonzero;stroke:#000000;stroke-width:1.5;stroke-miterlimit:4;stroke-opacity:1;stroke-dasharray:none"
         sodipodi:type="arc" />
      <path
         transform="matrix(0.67420814,0,0,0.67420814,164.2044,610.58825)"
         d="m 271,453.5 a 54.5,54.5 0 1 1 -109,0 54.5,54.5 0 1 1 109,0 z"
         sodipodi:ry="54.5"
         sodipodi:rx="54.5"
         sodipodi:cy="453.5"
         sodipodi:cx="216.5"
         id="path3990-1"
         style="fill:#ffffff;fill-opacity:1;fill-rule:nonzero;stroke:#000000;stroke-width:1.5;stroke-miterlimit:4;stroke-opacity:1;stroke-dasharray:none"
         sodipodi:type="arc" />
      <path
         transform="matrix(0.67420814,0,0,0.67420814,-191.7956,600.58825)"
         d="m 271,453.5 a 54.5,54.5 0 1 1 -109,0 54.5,54.5 0 1 1 109,0 z"
         sodipodi:ry="54.5"
         sodipodi:rx="54.5"
         sodipodi:cy="453.5"
         sodipodi:cx="216.5"
         id="path3990-8"
         style="fill:#ffffff;fill-opacity:1;fill-rule:nonzero;stroke:#000000;stroke-width:1.5;stroke-miterlimit:4;stroke-opacity:1;stroke-dasharray:none"
         sodipodi:type="arc" />
      <path
         transform="matrix(0.67420814,0,0,0.67420814,-165.7956,664.58825)"
         d="m 271,453.5 a 54.5,54.5 0 1 1 -109,0 54.5,54.5 0 1 1 109,0 z"
         sodipodi:ry="54.5"
         sodipodi:rx="54.5"
         sodipodi:cy="453.5"
         sodipodi:cx="216.5"
         id="path3990-28"
         style="fill:#ffffff;fill-opacity:1;fill-rule:nonzero;stroke:#000000;stroke-width:1.5;stroke-miterlimit:4;stroke-opacity:1;stroke-dasharray:none"
         sodipodi:type="arc" />
      <path
         transform="matrix(0.67420814,0,0,0.67420814,-121.7956,758.58825)"
         d="m 271,453.5 a 54.5,54.5 0 1 1 -109,0 54.5,54.5 0 1 1 109,0 z"
         sodipodi:ry="54.5"
         sodipodi:rx="54.5"
         sodipodi:cy="453.5"
         sodipodi:cx="216.5"
         id="path3990-81"
         style="fill:#ffffff;fill-opacity:1;fill-rule:nonzero;stroke:#000000;stroke-width:1.5;stroke-miterlimit:4;stroke-opacity:1;stroke-dasharray:none"
         sodipodi:type="arc" />
      <path
         transform="matrix(0.67420814,0,0,0.67420814,-53.7956,777.58825)"
         d="m 271,453.5 a 54.5,54.5 0 1 1 -109,0 54.5,54.5 0 1 1 109,0 z"
         sodipodi:ry="54.5"
         sodipodi:rx="54.5"
         sodipodi:cy="453.5"
         sodipodi:cx="216.5"
         id="path3990-86"
         style="fill:#ffffff;fill-opacity:1;fill-rule:nonzero;stroke:#000000;stroke-width:1.5;stroke-miterlimit:4;stroke-opacity:1;stroke-dasharray:none"
         sodipodi:type="arc" />
      <path
         transform="matrix(0.67420814,0,0,0.67420814,22.204396,788.58825)"
         d="m 271,453.5 a 54.5,54.5 0 1 1 -109,0 54.5,54.5 0 1 1 109,0 z"
         sodipodi:ry="54.5"
         sodipodi:rx="54.5"
         sodipodi:cy="453.5"
         sodipodi:cx="216.5"
         id="path3990-88"
         style="fill:#ffffff;fill-opacity:1;fill-rule:nonzero;stroke:#000000;stroke-width:1.5;stroke-miterlimit:4;stroke-opacity:1;stroke-dasharray:none"
         sodipodi:type="arc" />
      <path
         transform="matrix(0.67420814,0,0,0.67420814,98.204396,756.58825)"
         d="m 271,453.5 a 54.5,54.5 0 1 1 -109,0 54.5,54.5 0 1 1 109,0 z"
         sodipodi:ry="54.5"
         sodipodi:rx="54.5"
         sodipodi:cy="453.5"
         sodipodi:cx="216.5"
         id="path3990-32"
         style="fill:#ffffff;fill-opacity:1;fill-rule:nonzero;stroke:#000000;stroke-width:1.5;stroke-miterlimit:4;stroke-opacity:1;stroke-dasharray:none"
         sodipodi:type="arc" />
      <path
         transform="matrix(0.67420814,0,0,0.67420814,148.2044,687.58825)"
         d="m 271,453.5 a 54.5,54.5 0 1 1 -109,0 54.5,54.5 0 1 1 109,0 z"
         sodipodi:ry="54.5"
         sodipodi:rx="54.5"
         sodipodi:cy="453.5"
         sodipodi:cx="216.5"
         id="path3990-36"
         style="fill:#ffffff;fill-opacity:1;fill-rule:nonzero;stroke:#000000;stroke-width:1.5;stroke-miterlimit:4;stroke-opacity:1;stroke-dasharray:none"
         sodipodi:type="arc" />
      <path
         transform="matrix(0.67420814,0,0,0.67420814,217.2044,657.58825)"
         d="m 271,453.5 a 54.5,54.5 0 1 1 -109,0 54.5,54.5 0 1 1 109,0 z"
         sodipodi:ry="54.5"
         sodipodi:rx="54.5"
         sodipodi:cy="453.5"
         sodipodi:cx="216.5"
         id="path3990-7"
         style="fill:#ffffff;fill-opacity:1;fill-rule:nonzero;stroke:#000000;stroke-width:1.5;stroke-miterlimit:4;stroke-opacity:1;stroke-dasharray:none"
         sodipodi:type="arc" />
      <path
         transform="matrix(0.67420814,0,0,0.67420814,172.2044,761.58825)"
         d="m 271,453.5 a 54.5,54.5 0 1 1 -109,0 54.5,54.5 0 1 1 109,0 z"
         sodipodi:ry="54.5"
         sodipodi:rx="54.5"
         sodipodi:cy="453.5"
         sodipodi:cx="216.5"
         id="path3990-17"
         style="fill:#ffffff;fill-opacity:1;fill-rule:nonzero;stroke:#000000;stroke-width:1.5;stroke-miterlimit:4;stroke-opacity:1;stroke-dasharray:none"
         sodipodi:type="arc" />
      <path
         transform="matrix(0.67420814,0,0,0.67420814,86.2044,826.58825)"
         d="m 271,453.5 a 54.5,54.5 0 1 1 -109,0 54.5,54.5 0 1 1 109,0 z"
         sodipodi:ry="54.5"
         sodipodi:rx="54.5"
         sodipodi:cy="453.5"
         sodipodi:cx="216.5"
         id="path3990-15"
         style="fill:#ffffff;fill-opacity:1;fill-rule:nonzero;stroke:#000000;stroke-width:1.5;stroke-miterlimit:4;stroke-opacity:1;stroke-dasharray:none"
         sodipodi:type="arc" />
      <path
         transform="matrix(0.67420814,0,0,0.67420814,182.2044,538.58825)"
         d="m 271,453.5 a 54.5,54.5 0 1 1 -109,0 54.5,54.5 0 1 1 109,0 z"
         sodipodi:ry="54.5"
         sodipodi:rx="54.5"
         sodipodi:cy="453.5"
         sodipodi:cx="216.5"
         id="path3990-4"
         style="fill:#ffffff;fill-opacity:1;fill-rule:nonzero;stroke:#000000;stroke-width:1.5;stroke-miterlimit:4;stroke-opacity:1;stroke-dasharray:none"
         sodipodi:type="arc" />
      <path
         transform="matrix(0.67420814,0,0,0.67420814,112.2044,468.58825)"
         d="m 271,453.5 a 54.5,54.5 0 1 1 -109,0 54.5,54.5 0 1 1 109,0 z"
         sodipodi:ry="54.5"
         sodipodi:rx="54.5"
         sodipodi:cy="453.5"
         sodipodi:cx="216.5"
         id="path3990-95"
         style="fill:#ffffff;fill-opacity:1;fill-rule:nonzero;stroke:#000000;stroke-width:1.5;stroke-miterlimit:4;stroke-opacity:1;stroke-dasharray:none"
         sodipodi:type="arc" />
      <path
         transform="matrix(0.67420814,0,0,0.67420814,189.2044,460.58825)"
         d="m 271,453.5 a 54.5,54.5 0 1 1 -109,0 54.5,54.5 0 1 1 109,0 z"
         sodipodi:ry="54.5"
         sodipodi:rx="54.5"
         sodipodi:cy="453.5"
         sodipodi:cx="216.5"
         id="path3990-79"
         style="fill:#ffffff;fill-opacity:1;fill-rule:nonzero;stroke:#000000;stroke-width:1.5;stroke-miterlimit:4;stroke-opacity:1;stroke-dasharray:none"
         sodipodi:type="arc" />
      <path
         transform="matrix(0.67420814,0,0,0.67420814,35.2044,437.58825)"
         d="m 271,453.5 a 54.5,54.5 0 1 1 -109,0 54.5,54.5 0 1 1 109,0 z"
         sodipodi:ry="54.5"
         sodipodi:rx="54.5"
         sodipodi:cy="453.5"
         sodipodi:cx="216.5"
         id="path3990-5"
         style="fill:#ffffff;fill-opacity:1;fill-rule:nonzero;stroke:#000000;stroke-width:1.5;stroke-miterlimit:4;stroke-opacity:1;stroke-dasharray:none"
         sodipodi:type="arc" />
      <path
         transform="matrix(0.67420814,0,0,0.67420814,-57.795604,425.58825)"
         d="m 271,453.5 a 54.5,54.5 0 1 1 -109,0 54.5,54.5 0 1 1 109,0 z"
         sodipodi:ry="54.5"
         sodipodi:rx="54.5"
         sodipodi:cy="453.5"
         sodipodi:cx="216.5"
         id="path3990-83"
         style="fill:#ffffff;fill-opacity:1;fill-rule:nonzero;stroke:#000000;stroke-width:1.5;stroke-miterlimit:4;stroke-opacity:1;stroke-dasharray:none"
         sodipodi:type="arc" />
      <path
         transform="matrix(0.67420814,0,0,0.67420814,-225.7956,549.58825)"
         d="m 271,453.5 a 54.5,54.5 0 1 1 -109,0 54.5,54.5 0 1 1 109,0 z"
         sodipodi:ry="54.5"
         sodipodi:rx="54.5"
         sodipodi:cy="453.5"
         sodipodi:cx="216.5"
         id="path3990-87"
         style="fill:#ffffff;fill-opacity:1;fill-rule:nonzero;stroke:#000000;stroke-width:1.5;stroke-miterlimit:4;stroke-opacity:1;stroke-dasharray:none"
         sodipodi:type="arc" />
      <path
         transform="matrix(0.67420814,0,0,0.67420814,-211.7956,486.58825)"
         d="m 271,453.5 a 54.5,54.5 0 1 1 -109,0 54.5,54.5 0 1 1 109,0 z"
         sodipodi:ry="54.5"
         sodipodi:rx="54.5"
         sodipodi:cy="453.5"
         sodipodi:cx="216.5"
         id="path3990-72"
         style="fill:#ffffff;fill-opacity:1;fill-rule:nonzero;stroke:#000000;stroke-width:1.5;stroke-miterlimit:4;stroke-opacity:1;stroke-dasharray:none"
         sodipodi:type="arc" />
      <path
         transform="matrix(0.67420814,0,0,0.67420814,-238.7956,650.58825)"
         d="m 271,453.5 a 54.5,54.5 0 1 1 -109,0 54.5,54.5 0 1 1 109,0 z"
         sodipodi:ry="54.5"
         sodipodi:rx="54.5"
         sodipodi:cy="453.5"
         sodipodi:cx="216.5"
         id="path3990-876"
         style="fill:#ffffff;fill-opacity:1;fill-rule:nonzero;stroke:#000000;stroke-width:1.5;stroke-miterlimit:4;stroke-opacity:1;stroke-dasharray:none"
         sodipodi:type="arc" />
      <path
         transform="matrix(0.67420814,0,0,0.67420814,-184.7956,739.58825)"
         d="m 271,453.5 a 54.5,54.5 0 1 1 -109,0 54.5,54.5 0 1 1 109,0 z"
         sodipodi:ry="54.5"
         sodipodi:rx="54.5"
         sodipodi:cy="453.5"
         sodipodi:cx="216.5"
         id="path3990-65"
         style="fill:#ffffff;fill-opacity:1;fill-rule:nonzero;stroke:#000000;stroke-width:1.5;stroke-miterlimit:4;stroke-opacity:1;stroke-dasharray:none"
         sodipodi:type="arc" />
      <path
         transform="matrix(0.67420814,0,0,0.67420814,-120.7956,819.58825)"
         d="m 271,453.5 a 54.5,54.5 0 1 1 -109,0 54.5,54.5 0 1 1 109,0 z"
         sodipodi:ry="54.5"
         sodipodi:rx="54.5"
         sodipodi:cy="453.5"
         sodipodi:cx="216.5"
         id="path3990-74"
         style="fill:#ffffff;fill-opacity:1;fill-rule:nonzero;stroke:#000000;stroke-width:1.5;stroke-miterlimit:4;stroke-opacity:1;stroke-dasharray:none"
         sodipodi:type="arc" />
      <path
         transform="matrix(0.67420814,0,0,0.67420814,-34.7956,837.58825)"
         d="m 271,453.5 a 54.5,54.5 0 1 1 -109,0 54.5,54.5 0 1 1 109,0 z"
         sodipodi:ry="54.5"
         sodipodi:rx="54.5"
         sodipodi:cy="453.5"
         sodipodi:cx="216.5"
         id="path3990-154"
         style="fill:#ffffff;fill-opacity:1;fill-rule:nonzero;stroke:#000000;stroke-width:1.5;stroke-miterlimit:4;stroke-opacity:1;stroke-dasharray:none"
         sodipodi:type="arc" />
      <path
         transform="matrix(0.67420814,0,0,0.67420814,39.2044,877.58825)"
         d="m 271,453.5 a 54.5,54.5 0 1 1 -109,0 54.5,54.5 0 1 1 109,0 z"
         sodipodi:ry="54.5"
         sodipodi:rx="54.5"
         sodipodi:cy="453.5"
         sodipodi:cx="216.5"
         id="path3990-40"
         style="fill:#ffffff;fill-opacity:1;fill-rule:nonzero;stroke:#000000;stroke-width:1.5;stroke-miterlimit:4;stroke-opacity:1;stroke-dasharray:none"
         sodipodi:type="arc" />
      <path
         transform="matrix(0.67420814,0,0,0.67420814,165.2044,843.58825)"
         d="m 271,453.5 a 54.5,54.5 0 1 1 -109,0 54.5,54.5 0 1 1 109,0 z"
         sodipodi:ry="54.5"
         sodipodi:rx="54.5"
         sodipodi:cy="453.5"
         sodipodi:cx="216.5"
         id="path3990-73"
         style="fill:#ffffff;fill-opacity:1;fill-rule:nonzero;stroke:#000000;stroke-width:1.5;stroke-miterlimit:4;stroke-opacity:1;stroke-dasharray:none"
         sodipodi:type="arc" />
      <path
         transform="matrix(0.67420814,0,0,0.67420814,121.2044,895.58825)"
         d="m 271,453.5 a 54.5,54.5 0 1 1 -109,0 54.5,54.5 0 1 1 109,0 z"
         sodipodi:ry="54.5"
         sodipodi:rx="54.5"
         sodipodi:cy="453.5"
         sodipodi:cx="216.5"
         id="path3990-78"
         style="fill:#ffffff;fill-opacity:1;fill-rule:nonzero;stroke:#000000;stroke-width:1.5;stroke-miterlimit:4;stroke-opacity:1;stroke-dasharray:none"
         sodipodi:type="arc" />
      <path
         transform="matrix(0.67420814,0,0,0.67420814,-29.7956,901.58825)"
         d="m 271,453.5 a 54.5,54.5 0 1 1 -109,0 54.5,54.5 0 1 1 109,0 z"
         sodipodi:ry="54.5"
         sodipodi:rx="54.5"
         sodipodi:cy="453.5"
         sodipodi:cx="216.5"
         id="path3990-0"
         style="fill:#ffffff;fill-opacity:1;fill-rule:nonzero;stroke:#000000;stroke-width:1.5;stroke-miterlimit:4;stroke-opacity:1;stroke-dasharray:none"
         sodipodi:type="arc" />
      <path
         transform="matrix(0.67420814,0,0,0.67420814,-93.795604,883.58825)"
         d="m 271,453.5 a 54.5,54.5 0 1 1 -109,0 54.5,54.5 0 1 1 109,0 z"
         sodipodi:ry="54.5"
         sodipodi:rx="54.5"
         sodipodi:cy="453.5"
         sodipodi:cx="216.5"
         id="path3990-85"
         style="fill:#ffffff;fill-opacity:1;fill-rule:nonzero;stroke:#000000;stroke-width:1.5;stroke-miterlimit:4;stroke-opacity:1;stroke-dasharray:none"
         sodipodi:type="arc" />
      <path
         transform="matrix(0.67420814,0,0,0.67420814,-172.7956,873.58825)"
         d="m 271,453.5 a 54.5,54.5 0 1 1 -109,0 54.5,54.5 0 1 1 109,0 z"
         sodipodi:ry="54.5"
         sodipodi:rx="54.5"
         sodipodi:cy="453.5"
         sodipodi:cx="216.5"
         id="path3990-47"
         style="fill:#ffffff;fill-opacity:1;fill-rule:nonzero;stroke:#000000;stroke-width:1.5;stroke-miterlimit:4;stroke-opacity:1;stroke-dasharray:none"
         sodipodi:type="arc" />
      <path
         transform="matrix(0.67420814,0,0,0.67420814,-193.7956,809.58825)"
         d="m 271,453.5 a 54.5,54.5 0 1 1 -109,0 54.5,54.5 0 1 1 109,0 z"
         sodipodi:ry="54.5"
         sodipodi:rx="54.5"
         sodipodi:cy="453.5"
         sodipodi:cx="216.5"
         id="path3990-04"
         style="fill:#ffffff;fill-opacity:1;fill-rule:nonzero;stroke:#000000;stroke-width:1.5;stroke-miterlimit:4;stroke-opacity:1;stroke-dasharray:none"
         sodipodi:type="arc" />
      <path
         transform="matrix(0.67420814,0,0,0.67420814,-244.7956,775.58825)"
         d="m 271,453.5 a 54.5,54.5 0 1 1 -109,0 54.5,54.5 0 1 1 109,0 z"
         sodipodi:ry="54.5"
         sodipodi:rx="54.5"
         sodipodi:cy="453.5"
         sodipodi:cx="216.5"
         id="path3990-882"
         style="fill:#ffffff;fill-opacity:1;fill-rule:nonzero;stroke:#000000;stroke-width:1.5;stroke-miterlimit:4;stroke-opacity:1;stroke-dasharray:none"
         sodipodi:type="arc" />
      <path
         transform="matrix(0.67420814,0,0,0.67420814,-0.7956,622.58825)"
         d="m 271,453.5 a 54.5,54.5 0 1 1 -109,0 54.5,54.5 0 1 1 109,0 z"
         sodipodi:ry="54.5"
         sodipodi:rx="54.5"
         sodipodi:cy="453.5"
         sodipodi:cx="216.5"
         id="path3990-26"
         style="fill:#ffffff;fill-opacity:1;fill-rule:nonzero;stroke:#000000;stroke-width:1.5;stroke-miterlimit:4;stroke-opacity:1;stroke-dasharray:none"
         sodipodi:type="arc" />
      <path
         transform="matrix(0.67420814,0,0,0.67420814,219.2044,723.58825)"
         d="m 271,453.5 a 54.5,54.5 0 1 1 -109,0 54.5,54.5 0 1 1 109,0 z"
         sodipodi:ry="54.5"
         sodipodi:rx="54.5"
         sodipodi:cy="453.5"
         sodipodi:cx="216.5"
         id="path3990-99"
         style="fill:#ffffff;fill-opacity:1;fill-rule:nonzero;stroke:#000000;stroke-width:1.5;stroke-miterlimit:4;stroke-opacity:1;stroke-dasharray:none"
         sodipodi:type="arc" />
      <path
         transform="matrix(0.67420814,0,0,0.67420814,232.2044,587.58825)"
         d="m 271,453.5 a 54.5,54.5 0 1 1 -109,0 54.5,54.5 0 1 1 109,0 z"
         sodipodi:ry="54.5"
         sodipodi:rx="54.5"
         sodipodi:cy="453.5"
         sodipodi:cx="216.5"
         id="path3990-08"
         style="fill:#ffffff;fill-opacity:1;fill-rule:nonzero;stroke:#000000;stroke-width:1.5;stroke-miterlimit:4;stroke-opacity:1;stroke-dasharray:none"
         sodipodi:type="arc" />
      <text
         xml:space="preserve"
         style="font-size:21.38297843999999870px;font-style:normal;font-variant:normal;font-weight:normal;font-stretch:normal;line-height:125%;letter-spacing:0px;word-spacing:0px;fill:#000000;fill-opacity:0.63917524;stroke:none;font-family:Helvetica;-inkscape-font-specification:Helvetica"
         x="-398.05527"
         y="818.67371"
         id="text3378"
         sodipodi:linespacing="125%"
         transform="matrix(0.86731997,-0.49775101,0.49775101,0.86731997,0,0)"><tspan
           sodipodi:role="line"
           id="tspan3380"
           x="-398.05527"
           y="818.67371">dance</tspan></text>
      <text
         xml:space="preserve"
         style="font-size:21.38297843999999870px;font-style:normal;font-variant:normal;font-weight:normal;font-stretch:normal;line-height:125%;letter-spacing:0px;word-spacing:0px;fill:#000000;fill-opacity:0.63917524;stroke:none;font-family:Helvetica;-inkscape-font-specification:Helvetica"
         x="391.3374"
         y="818.47235"
         id="text3378-1"
         sodipodi:linespacing="125%"
         transform="matrix(0.96834719,0.24960714,-0.24960714,0.96834719,0,0)"><tspan
           sodipodi:role="line"
           id="tspan3380-5"
           x="391.3374"
           y="818.47235">dance</tspan></text>
      <text
         xml:space="preserve"
         style="font-size:21.38297843999999870px;font-style:normal;font-variant:normal;font-weight:normal;font-stretch:normal;line-height:125%;letter-spacing:0px;word-spacing:0px;fill:#000000;fill-opacity:0.63917524;stroke:none;font-family:Helvetica;-inkscape-font-specification:Helvetica"
         x="66.825546"
         y="999.60016"
         id="text3378-2"
         sodipodi:linespacing="125%"
         transform="matrix(0.9986617,-0.05171854,0.05171854,0.9986617,0,0)"><tspan
           sodipodi:role="line"
           id="tspan3380-52"
           x="66.825546"
           y="999.60016">dance</tspan></text>
    </g>
  </g>
</svg>
