<?xml version="1.0" encoding="UTF-8" standalone="no"?>
<!-- Created with Inkscape (http://www.inkscape.org/) -->

<svg
   xmlns:dc="http://purl.org/dc/elements/1.1/"
   xmlns:cc="http://creativecommons.org/ns#"
   xmlns:rdf="http://www.w3.org/1999/02/22-rdf-syntax-ns#"
   xmlns:svg="http://www.w3.org/2000/svg"
   xmlns="http://www.w3.org/2000/svg"
   xmlns:sodipodi="http://sodipodi.sourceforge.net/DTD/sodipodi-0.dtd"
   xmlns:inkscape="http://www.inkscape.org/namespaces/inkscape"
   width="800"
   height="800"
   id="svg2"
   version="1.1"
   inkscape:version="0.48.4 r9939"
   sodipodi:docname="New document 1">
  <defs
     id="defs4" />
  <sodipodi:namedview
     id="base"
     pagecolor="#ffffff"
     bordercolor="#666666"
     borderopacity="1.0"
     inkscape:pageopacity="0.0"
     inkscape:pageshadow="2"
     inkscape:zoom="1"
     inkscape:cx="375"
     inkscape:cy="412.87958"
     inkscape:document-units="px"
     inkscape:current-layer="layer1"
     showgrid="false"
     inkscape:window-width="1920"
     inkscape:window-height="1053"
     inkscape:window-x="1920"
     inkscape:window-y="0"
     inkscape:window-maximized="1" />
  <metadata
     id="metadata7">
    <rdf:RDF>
      <cc:Work
         rdf:about="">
        <dc:format>image/svg+xml</dc:format>
        <dc:type
           rdf:resource="http://purl.org/dc/dcmitype/StillImage" />
        <dc:title></dc:title>
      </cc:Work>
    </rdf:RDF>
  </metadata>
  <g
     inkscape:label="Layer 1"
     inkscape:groupmode="layer"
     id="layer1"
     transform="translate(0,-252.36218)">
    <g
       id="g3044">
      <path
         transform="translate(0,252.36218)"
         d="M 526,220.5 C 526,280.4229 477.4229,329 417.5,329 357.5771,329 309,280.4229 309,220.5 309,160.5771 357.5771,112 417.5,112 477.4229,112 526,160.5771 526,220.5 z"
         sodipodi:ry="108.5"
         sodipodi:rx="108.5"
         sodipodi:cy="220.5"
         sodipodi:cx="417.5"
         id="path2985"
         style="fill:none;stroke:#000000;stroke-width:1.5;stroke-miterlimit:4;stroke-opacity:1;stroke-dasharray:none"
         sodipodi:type="arc" />
      <path
         sodipodi:type="arc"
         style="fill:none;stroke:#000000;stroke-width:1.5;stroke-miterlimit:4;stroke-opacity:1;stroke-dasharray:none"
         id="path3005"
         sodipodi:cx="417.5"
         sodipodi:cy="220.5"
         sodipodi:rx="108.5"
         sodipodi:ry="108.5"
         d="M 526,220.5 C 526,280.4229 477.4229,329 417.5,329 357.5771,329 309,280.4229 309,220.5 309,160.5771 357.5771,112 417.5,112 477.4229,112 526,160.5771 526,220.5 z"
         transform="matrix(0.76124739,0,0,1.0008787,99.679216,252.16842)" />
      <path
         transform="matrix(0.39427155,0,0,1.0025665,252.89163,251.79627)"
         d="M 526,220.5 C 526,280.4229 477.4229,329 417.5,329 357.5771,329 309,280.4229 309,220.5 309,160.5771 357.5771,112 417.5,112 477.4229,112 526,160.5771 526,220.5 z"
         sodipodi:ry="108.5"
         sodipodi:rx="108.5"
         sodipodi:cy="220.5"
         sodipodi:cx="417.5"
         id="path3007"
         style="fill:none;stroke:#000000;stroke-width:1.5;stroke-miterlimit:4;stroke-opacity:1;stroke-dasharray:none"
         sodipodi:type="arc" />
      <path
         sodipodi:type="arc"
         style="fill:none;stroke:#000000;stroke-width:1.5;stroke-miterlimit:4;stroke-opacity:1;stroke-dasharray:none"
         id="path3011"
         sodipodi:cx="417.5"
         sodipodi:cy="220.5"
         sodipodi:rx="108.5"
         sodipodi:ry="108.5"
         d="M 526,220.5 C 526,280.4229 477.4229,329 417.5,329 357.5771,329 309,280.4229 309,220.5 309,160.5771 357.5771,112 417.5,112 477.4229,112 526,160.5771 526,220.5 z"
         transform="matrix(0.13797976,0,0,1.0043392,359.89345,251.40538)" />
      <path
         sodipodi:nodetypes="csc"
         inkscape:connector-curvature="0"
         id="path3033"
         d="m 526.11083,472.75135 c 0,43.47678 -48.62672,78.72166 -108.61083,78.72166 -59.98411,0 -108.61083,-35.24488 -108.61083,-78.72166"
         style="fill:none;stroke:#000000;stroke-width:1.27833664;stroke-miterlimit:4;stroke-opacity:1" />
      <path
         style="fill:none;stroke:#000000;stroke-width:0.87863654;stroke-miterlimit:4;stroke-opacity:1"
         d="m 526.31068,472.5515 c 0,20.50156 -48.7162,37.12136 -108.81068,37.12136 -60.09448,0 -108.81068,-16.6198 -108.81068,-37.12136"
         id="path3036"
         inkscape:connector-curvature="0"
         sodipodi:nodetypes="csc" />
      <path
         sodipodi:nodetypes="csc"
         inkscape:connector-curvature="0"
         id="path3038"
         d="m 522.31872,445.54346 c 0,20.51045 -46.92894,37.13744 -104.81872,37.13744 -57.88978,0 -104.81872,-16.62699 -104.81872,-37.13744"
         style="fill:none;stroke:#000000;stroke-width:0.86255533;stroke-miterlimit:4;stroke-opacity:1" />
      <path
         style="fill:none;stroke:#000000;stroke-width:0.82092881;stroke-miterlimit:4;stroke-opacity:1"
         d="m 512.33953,417.52265 c 0,20.53344 -42.4611,37.17906 -94.83953,37.17906 -52.37843,0 -94.83953,-16.64562 -94.83953,-37.17906"
         id="path3040"
         inkscape:connector-curvature="0"
         sodipodi:nodetypes="csc" />
      <path
         sodipodi:nodetypes="csc"
         inkscape:connector-curvature="0"
         id="path3042"
         d="m 492.38241,394.47977 c 0,20.5808 -33.97371,37.26482 -75.88241,37.26482 -41.9087,0 -75.88241,-16.68402 -75.88241,-37.26482"
         style="fill:none;stroke:#000000;stroke-width:0.73515975;stroke-miterlimit:4;stroke-opacity:1" />
    </g>
  </g>
</svg>
