<?xml version="1.0" encoding="UTF-8" standalone="no"?>
<!-- Created with Inkscape (http://www.inkscape.org/) -->

<svg
   xmlns:dc="http://purl.org/dc/elements/1.1/"
   xmlns:cc="http://creativecommons.org/ns#"
   xmlns:rdf="http://www.w3.org/1999/02/22-rdf-syntax-ns#"
   xmlns:svg="http://www.w3.org/2000/svg"
   xmlns="http://www.w3.org/2000/svg"
   xmlns:sodipodi="http://sodipodi.sourceforge.net/DTD/sodipodi-0.dtd"
   xmlns:inkscape="http://www.inkscape.org/namespaces/inkscape"
   width="799.71002"
   height="703.20892"
   id="svg2"
   version="1.1"
   inkscape:version="0.48.4 r9939"
   sodipodi:docname="header.svg">
  <defs
     id="defs4" />
  <sodipodi:namedview
     id="base"
     pagecolor="#ffffff"
     bordercolor="#666666"
     borderopacity="1.0"
     inkscape:pageopacity="0.0"
     inkscape:pageshadow="2"
     inkscape:zoom="1"
     inkscape:cx="369.57617"
     inkscape:cy="390.45722"
     inkscape:document-units="px"
     inkscape:current-layer="layer1"
     showgrid="false"
     inkscape:window-width="1920"
     inkscape:window-height="1028"
     inkscape:window-x="0"
     inkscape:window-y="0"
     inkscape:window-maximized="1"
     fit-margin-top="0"
     fit-margin-left="20"
     fit-margin-right="20"
     fit-margin-bottom="0" />
  <metadata
     id="metadata7">
    <rdf:RDF>
      <cc:Work
         rdf:about="">
        <dc:format>image/svg+xml</dc:format>
        <dc:type
           rdf:resource="http://purl.org/dc/dcmitype/StillImage" />
        <dc:title></dc:title>
      </cc:Work>
    </rdf:RDF>
  </metadata>
  <g
     inkscape:label="Layer 1"
     inkscape:groupmode="layer"
     id="layer1"
     transform="translate(-9.0400004,-252.86218)">
    <g
       id="g3185"
       transform="translate(197,3)">
      <g
         transform="translate(-32,48)"
         id="g3172">
        <path
           sodipodi:type="arc"
           style="fill:#ffffff;fill-opacity:1;stroke:#000000;stroke-width:1.5;stroke-miterlimit:4;stroke-opacity:1;stroke-dasharray:none"
           id="path2985"
           sodipodi:cx="417.5"
           sodipodi:cy="220.5"
           sodipodi:rx="108.5"
           sodipodi:ry="108.5"
           d="M 526,220.5 C 526,280.4229 477.4229,329 417.5,329 357.5771,329 309,280.4229 309,220.5 309,160.5771 357.5771,112 417.5,112 477.4229,112 526,160.5771 526,220.5 z"
           transform="translate(-9,200.36218)" />
        <path
           transform="matrix(0.76124739,0,0,1.0008787,90.679216,200.16842)"
           d="M 526,220.5 C 526,280.4229 477.4229,329 417.5,329 357.5771,329 309,280.4229 309,220.5 309,160.5771 357.5771,112 417.5,112 477.4229,112 526,160.5771 526,220.5 z"
           sodipodi:ry="108.5"
           sodipodi:rx="108.5"
           sodipodi:cy="220.5"
           sodipodi:cx="417.5"
           id="path3005"
           style="fill:none;stroke:#000000;stroke-width:1.5;stroke-miterlimit:4;stroke-opacity:1;stroke-dasharray:none"
           sodipodi:type="arc" />
        <path
           sodipodi:type="arc"
           style="fill:none;stroke:#000000;stroke-width:1.5;stroke-miterlimit:4;stroke-opacity:1;stroke-dasharray:none"
           id="path3007"
           sodipodi:cx="417.5"
           sodipodi:cy="220.5"
           sodipodi:rx="108.5"
           sodipodi:ry="108.5"
           d="M 526,220.5 C 526,280.4229 477.4229,329 417.5,329 357.5771,329 309,280.4229 309,220.5 309,160.5771 357.5771,112 417.5,112 477.4229,112 526,160.5771 526,220.5 z"
           transform="matrix(0.39427155,0,0,1.0025665,243.89163,199.79627)" />
        <path
           transform="matrix(0.13797976,0,0,1.0043392,350.89345,199.40538)"
           d="M 526,220.5 C 526,280.4229 477.4229,329 417.5,329 357.5771,329 309,280.4229 309,220.5 309,160.5771 357.5771,112 417.5,112 477.4229,112 526,160.5771 526,220.5 z"
           sodipodi:ry="108.5"
           sodipodi:rx="108.5"
           sodipodi:cy="220.5"
           sodipodi:cx="417.5"
           id="path3011"
           style="fill:none;stroke:#000000;stroke-width:1.5;stroke-miterlimit:4;stroke-opacity:1;stroke-dasharray:none"
           sodipodi:type="arc" />
        <path
           style="fill:none;stroke:#000000;stroke-width:1.27833664;stroke-miterlimit:4;stroke-opacity:1"
           d="m 517.11083,420.75135 c 0,43.47678 -48.62672,78.72166 -108.61083,78.72166 -59.98411,0 -108.61083,-35.24488 -108.61083,-78.72166"
           id="path3033"
           inkscape:connector-curvature="0"
           sodipodi:nodetypes="csc" />
        <path
           sodipodi:nodetypes="csc"
           inkscape:connector-curvature="0"
           id="path3036"
           d="m 517.31068,420.5515 c 0,20.50156 -48.7162,37.12136 -108.81068,37.12136 -60.09448,0 -108.81068,-16.6198 -108.81068,-37.12136"
           style="fill:none;stroke:#000000;stroke-width:0.87863654;stroke-miterlimit:4;stroke-opacity:1" />
        <path
           style="fill:none;stroke:#000000;stroke-width:0.86255533;stroke-miterlimit:4;stroke-opacity:1"
           d="m 513.31872,393.54346 c 0,20.51045 -46.92894,37.13744 -104.81872,37.13744 -57.88978,0 -104.81872,-16.62699 -104.81872,-37.13744"
           id="path3038"
           inkscape:connector-curvature="0"
           sodipodi:nodetypes="csc" />
        <path
           sodipodi:nodetypes="csc"
           inkscape:connector-curvature="0"
           id="path3040"
           d="m 503.33953,365.52265 c 0,20.53344 -42.4611,37.17906 -94.83953,37.17906 -52.37843,0 -94.83953,-16.64562 -94.83953,-37.17906"
           style="fill:none;stroke:#000000;stroke-width:0.82092881;stroke-miterlimit:4;stroke-opacity:1" />
        <path
           style="fill:none;stroke:#000000;stroke-width:0.73515975;stroke-miterlimit:4;stroke-opacity:1"
           d="m 483.38241,342.47977 c 0,20.5808 -33.97371,37.26482 -75.88241,37.26482 -41.9087,0 -75.88241,-16.68402 -75.88241,-37.26482"
           id="path3042"
           inkscape:connector-curvature="0"
           sodipodi:nodetypes="csc" />
      </g>
      <path
         transform="translate(0,252.36218)"
         inkscape:connector-curvature="0"
         id="path3183"
         d="M 375,107 375,-2 z"
         style="fill:none;stroke:#000000;stroke-width:1px;stroke-linecap:butt;stroke-linejoin:miter;stroke-opacity:1" />
    </g>
    <path
       style="fill:none;stroke:#000000;stroke-width:1.5;stroke-miterlimit:4;stroke-opacity:1"
       d="m 530.46473,283.91619 c -11.8442,1.64459 -22.51057,4.02435 -31.4683,6.96502 C 481.08095,296.76255 470,304.88755 470,313.86218 c 0,17.94925 44.32381,32.5 99,32.5 54.67619,0 99,-14.55075 99,-32.5 0,-8.97463 -11.08095,-17.09963 -28.99643,-22.98097 L 664,284.36218 639.00357,290.88121 653,306.36218 639.00357,290.88121"
       id="path3204"
       inkscape:connector-curvature="0"
       sodipodi:nodetypes="cssssccccc" />
    <text
       xml:space="preserve"
       style="font-size:90.46483612px;font-style:normal;font-variant:normal;font-weight:normal;font-stretch:normal;line-height:125%;letter-spacing:0px;word-spacing:0px;fill:#000000;fill-opacity:1;stroke:none;font-family:Anonymous Pro;-inkscape-font-specification:Anonymous Pro"
       x="22.164673"
       y="344.15106"
       id="text3992"
       sodipodi:linespacing="125%"><tspan
         sodipodi:role="line"
         id="tspan3994"
         x="22.164673"
         y="344.15106"
         style="font-family:Helvetica;-inkscape-font-specification:Helvetica">Nightclub</tspan><tspan
         sodipodi:role="line"
         x="22.164673"
         y="457.23212"
         id="tspan3996"
         style="font-family:Helvetica;-inkscape-font-specification:Helvetica">Physics</tspan></text>
    <g
       id="g4024"
       transform="translate(0,-95)">
      <path
         transform="matrix(0.67420814,0,0,0.67420814,-1.466063,531.10879)"
         d="m 271,453.5 c 0,30.09952 -24.40048,54.5 -54.5,54.5 -30.09952,0 -54.5,-24.40048 -54.5,-54.5 0,-30.09952 24.40048,-54.5 54.5,-54.5 30.09952,0 54.5,24.40048 54.5,54.5 z"
         sodipodi:ry="54.5"
         sodipodi:rx="54.5"
         sodipodi:cy="453.5"
         sodipodi:cx="216.5"
         id="path3990"
         style="fill:#ffffff;fill-opacity:1;fill-rule:nonzero;stroke:#000000;stroke-width:1.5;stroke-miterlimit:4;stroke-opacity:1;stroke-dasharray:none"
         sodipodi:type="arc" />
      <path
         inkscape:connector-curvature="0"
         id="path3998"
         d="m 144,872.29021 0,112.14394 z"
         style="fill:none;stroke:#000000;stroke-width:0.92523545px;stroke-linecap:butt;stroke-linejoin:miter;stroke-opacity:1" />
      <path
         inkscape:connector-curvature="0"
         id="path4000"
         d="m 144.5921,983.77008 -36.02266,62.39312 z"
         style="fill:none;stroke:#000000;stroke-width:1.81579924px;stroke-linecap:butt;stroke-linejoin:miter;stroke-opacity:1" />
      <path
         style="fill:none;stroke:#000000;stroke-width:1.81578815px;stroke-linecap:butt;stroke-linejoin:miter;stroke-opacity:1"
         d="m 144.4079,983.77008 36.02221,62.39312 z"
         id="path4004"
         inkscape:connector-curvature="0" />
      <path
         inkscape:connector-curvature="0"
         id="path4006"
         d="m 103.16949,919.36218 77.66102,0 z"
         style="fill:none;stroke:#000000;stroke-width:1.15714431px;stroke-linecap:butt;stroke-linejoin:miter;stroke-opacity:1" />
    </g>
    <g
       id="g4031"
       transform="translate(0,-95)">
      <path
         transform="translate(0,252.36218)"
         inkscape:connector-curvature="0"
         id="path4008"
         d="m 194,529 0,-87 z"
         style="fill:none;stroke:#000000;stroke-width:1px;stroke-linecap:butt;stroke-linejoin:miter;stroke-opacity:1" />
      <path
         transform="translate(0,252.36218)"
         inkscape:connector-curvature="0"
         id="path4010"
         d="m 194,442 -12.95929,22.44615 z"
         style="fill:none;stroke:#000000;stroke-width:1px;stroke-linecap:butt;stroke-linejoin:miter;stroke-opacity:1" />
      <path
         style="fill:none;stroke:#000000;stroke-width:1px;stroke-linecap:butt;stroke-linejoin:miter;stroke-opacity:1"
         d="M 194.04071,694.36218 207,716.80833 z"
         id="path4012"
         inkscape:connector-curvature="0" />
      <text
         sodipodi:linespacing="125%"
         id="text4014"
         y="776.36218"
         x="206"
         style="font-size:40px;font-style:normal;font-variant:normal;font-weight:normal;font-stretch:normal;line-height:125%;letter-spacing:0px;word-spacing:0px;fill:#000000;fill-opacity:1;stroke:none;font-family:Musica;-inkscape-font-specification:Musica"
         xml:space="preserve"><tspan
           y="776.36218"
           x="206"
           id="tspan4016"
           sodipodi:role="line">y</tspan></text>
    </g>
    <g
       id="g4071"
       transform="translate(222,-91)">
      <path
         sodipodi:type="arc"
         style="fill:#ffffff;fill-opacity:1;fill-rule:nonzero;stroke:#000000;stroke-width:1.5;stroke-miterlimit:4;stroke-opacity:1;stroke-dasharray:none"
         id="path4073"
         sodipodi:cx="216.5"
         sodipodi:cy="453.5"
         sodipodi:rx="54.5"
         sodipodi:ry="54.5"
         d="m 271,453.5 c 0,30.09952 -24.40048,54.5 -54.5,54.5 -30.09952,0 -54.5,-24.40048 -54.5,-54.5 0,-30.09952 24.40048,-54.5 54.5,-54.5 30.09952,0 54.5,24.40048 54.5,54.5 z"
         transform="matrix(0.67420814,0,0,0.67420814,-1.466063,531.10879)" />
      <path
         style="fill:none;stroke:#000000;stroke-width:0.92523545px;stroke-linecap:butt;stroke-linejoin:miter;stroke-opacity:1"
         d="m 144,872.29021 0,112.14394 z"
         id="path4075"
         inkscape:connector-curvature="0" />
      <path
         style="fill:none;stroke:#000000;stroke-width:1.81579924px;stroke-linecap:butt;stroke-linejoin:miter;stroke-opacity:1"
         d="m 144.5921,983.77008 -36.02266,62.39312 z"
         id="path4077"
         inkscape:connector-curvature="0" />
      <path
         inkscape:connector-curvature="0"
         id="path4079"
         d="m 144.4079,983.77008 36.02221,62.39312 z"
         style="fill:none;stroke:#000000;stroke-width:1.81578815px;stroke-linecap:butt;stroke-linejoin:miter;stroke-opacity:1" />
      <path
         style="fill:none;stroke:#000000;stroke-width:1.15714431px;stroke-linecap:butt;stroke-linejoin:miter;stroke-opacity:1"
         d="m 103.16949,919.36218 77.66102,0 z"
         id="path4081"
         inkscape:connector-curvature="0" />
    </g>
    <g
       transform="translate(344,-91)"
       id="g4107">
      <path
         transform="matrix(0.67420814,0,0,0.67420814,-1.466063,531.10879)"
         d="m 271,453.5 c 0,30.09952 -24.40048,54.5 -54.5,54.5 -30.09952,0 -54.5,-24.40048 -54.5,-54.5 0,-30.09952 24.40048,-54.5 54.5,-54.5 30.09952,0 54.5,24.40048 54.5,54.5 z"
         sodipodi:ry="54.5"
         sodipodi:rx="54.5"
         sodipodi:cy="453.5"
         sodipodi:cx="216.5"
         id="path4109"
         style="fill:#ffffff;fill-opacity:1;fill-rule:nonzero;stroke:#000000;stroke-width:1.5;stroke-miterlimit:4;stroke-opacity:1;stroke-dasharray:none"
         sodipodi:type="arc" />
      <path
         inkscape:connector-curvature="0"
         id="path4111"
         d="m 144,872.29021 0,112.14394 z"
         style="fill:none;stroke:#000000;stroke-width:0.92523545px;stroke-linecap:butt;stroke-linejoin:miter;stroke-opacity:1" />
      <path
         inkscape:connector-curvature="0"
         id="path4113"
         d="m 144.5921,983.77008 -36.02266,62.39312 z"
         style="fill:none;stroke:#000000;stroke-width:1.81579924px;stroke-linecap:butt;stroke-linejoin:miter;stroke-opacity:1" />
      <path
         style="fill:none;stroke:#000000;stroke-width:1.81578815px;stroke-linecap:butt;stroke-linejoin:miter;stroke-opacity:1"
         d="m 144.4079,983.77008 36.02221,62.39312 z"
         id="path4115"
         inkscape:connector-curvature="0" />
      <path
         inkscape:connector-curvature="0"
         id="path4117"
         d="m 103.16949,919.36218 77.66102,0 z"
         style="fill:none;stroke:#000000;stroke-width:1.15714431px;stroke-linecap:butt;stroke-linejoin:miter;stroke-opacity:1" />
    </g>
    <g
       id="g4095"
       transform="translate(304,-91)">
      <path
         sodipodi:type="arc"
         style="fill:#ffffff;fill-opacity:1;fill-rule:nonzero;stroke:#000000;stroke-width:1.5;stroke-miterlimit:4;stroke-opacity:1;stroke-dasharray:none"
         id="path4097"
         sodipodi:cx="216.5"
         sodipodi:cy="453.5"
         sodipodi:rx="54.5"
         sodipodi:ry="54.5"
         d="m 271,453.5 c 0,30.09952 -24.40048,54.5 -54.5,54.5 -30.09952,0 -54.5,-24.40048 -54.5,-54.5 0,-30.09952 24.40048,-54.5 54.5,-54.5 30.09952,0 54.5,24.40048 54.5,54.5 z"
         transform="matrix(0.67420814,0,0,0.67420814,-1.466063,531.10879)" />
      <path
         style="fill:none;stroke:#000000;stroke-width:0.92523545px;stroke-linecap:butt;stroke-linejoin:miter;stroke-opacity:1"
         d="m 144,872.29021 0,112.14394 z"
         id="path4099"
         inkscape:connector-curvature="0" />
      <path
         style="fill:none;stroke:#000000;stroke-width:1.81579924px;stroke-linecap:butt;stroke-linejoin:miter;stroke-opacity:1"
         d="m 144.5921,983.77008 -36.02266,62.39312 z"
         id="path4101"
         inkscape:connector-curvature="0" />
      <path
         inkscape:connector-curvature="0"
         id="path4103"
         d="m 144.4079,983.77008 36.02221,62.39312 z"
         style="fill:none;stroke:#000000;stroke-width:1.81578815px;stroke-linecap:butt;stroke-linejoin:miter;stroke-opacity:1" />
      <path
         style="fill:none;stroke:#000000;stroke-width:1.15714431px;stroke-linecap:butt;stroke-linejoin:miter;stroke-opacity:1"
         d="m 103.16949,919.36218 77.66102,0 z"
         id="path4105"
         inkscape:connector-curvature="0" />
    </g>
    <g
       transform="translate(254,-91)"
       id="g4083">
      <path
         transform="matrix(0.67420814,0,0,0.67420814,-1.466063,531.10879)"
         d="m 271,453.5 c 0,30.09952 -24.40048,54.5 -54.5,54.5 -30.09952,0 -54.5,-24.40048 -54.5,-54.5 0,-30.09952 24.40048,-54.5 54.5,-54.5 30.09952,0 54.5,24.40048 54.5,54.5 z"
         sodipodi:ry="54.5"
         sodipodi:rx="54.5"
         sodipodi:cy="453.5"
         sodipodi:cx="216.5"
         id="path4085"
         style="fill:#ffffff;fill-opacity:1;fill-rule:nonzero;stroke:#000000;stroke-width:1.5;stroke-miterlimit:4;stroke-opacity:1;stroke-dasharray:none"
         sodipodi:type="arc" />
      <path
         inkscape:connector-curvature="0"
         id="path4087"
         d="m 144,872.29021 0,112.14394 z"
         style="fill:none;stroke:#000000;stroke-width:0.92523545px;stroke-linecap:butt;stroke-linejoin:miter;stroke-opacity:1" />
      <path
         inkscape:connector-curvature="0"
         id="path4089"
         d="m 144.5921,983.77008 -36.02266,62.39312 z"
         style="fill:none;stroke:#000000;stroke-width:1.81579924px;stroke-linecap:butt;stroke-linejoin:miter;stroke-opacity:1" />
      <path
         style="fill:none;stroke:#000000;stroke-width:1.81578815px;stroke-linecap:butt;stroke-linejoin:miter;stroke-opacity:1"
         d="m 144.4079,983.77008 36.02221,62.39312 z"
         id="path4091"
         inkscape:connector-curvature="0" />
      <path
         inkscape:connector-curvature="0"
         id="path4093"
         d="m 103.16949,919.36218 77.66102,0 z"
         style="fill:none;stroke:#000000;stroke-width:1.15714431px;stroke-linecap:butt;stroke-linejoin:miter;stroke-opacity:1" />
    </g>
    <g
       transform="translate(418,-91)"
       id="g4131">
      <path
         transform="matrix(0.67420814,0,0,0.67420814,-1.466063,531.10879)"
         d="m 271,453.5 c 0,30.09952 -24.40048,54.5 -54.5,54.5 -30.09952,0 -54.5,-24.40048 -54.5,-54.5 0,-30.09952 24.40048,-54.5 54.5,-54.5 30.09952,0 54.5,24.40048 54.5,54.5 z"
         sodipodi:ry="54.5"
         sodipodi:rx="54.5"
         sodipodi:cy="453.5"
         sodipodi:cx="216.5"
         id="path4133"
         style="fill:#ffffff;fill-opacity:1;fill-rule:nonzero;stroke:#000000;stroke-width:1.5;stroke-miterlimit:4;stroke-opacity:1;stroke-dasharray:none"
         sodipodi:type="arc" />
      <path
         inkscape:connector-curvature="0"
         id="path4135"
         d="m 144,872.29021 0,112.14394 z"
         style="fill:none;stroke:#000000;stroke-width:0.92523545px;stroke-linecap:butt;stroke-linejoin:miter;stroke-opacity:1" />
      <path
         inkscape:connector-curvature="0"
         id="path4137"
         d="m 144.5921,983.77008 -36.02266,62.39312 z"
         style="fill:none;stroke:#000000;stroke-width:1.81579924px;stroke-linecap:butt;stroke-linejoin:miter;stroke-opacity:1" />
      <path
         style="fill:none;stroke:#000000;stroke-width:1.81578815px;stroke-linecap:butt;stroke-linejoin:miter;stroke-opacity:1"
         d="m 144.4079,983.77008 36.02221,62.39312 z"
         id="path4139"
         inkscape:connector-curvature="0" />
      <path
         inkscape:connector-curvature="0"
         id="path4141"
         d="m 103.16949,919.36218 77.66102,0 z"
         style="fill:none;stroke:#000000;stroke-width:1.15714431px;stroke-linecap:butt;stroke-linejoin:miter;stroke-opacity:1" />
    </g>
    <g
       id="g4119"
       transform="translate(384,-91)">
      <path
         sodipodi:type="arc"
         style="fill:#ffffff;fill-opacity:1;fill-rule:nonzero;stroke:#000000;stroke-width:1.5;stroke-miterlimit:4;stroke-opacity:1;stroke-dasharray:none"
         id="path4121"
         sodipodi:cx="216.5"
         sodipodi:cy="453.5"
         sodipodi:rx="54.5"
         sodipodi:ry="54.5"
         d="m 271,453.5 c 0,30.09952 -24.40048,54.5 -54.5,54.5 -30.09952,0 -54.5,-24.40048 -54.5,-54.5 0,-30.09952 24.40048,-54.5 54.5,-54.5 30.09952,0 54.5,24.40048 54.5,54.5 z"
         transform="matrix(0.67420814,0,0,0.67420814,-1.466063,531.10879)" />
      <path
         style="fill:none;stroke:#000000;stroke-width:0.92523545px;stroke-linecap:butt;stroke-linejoin:miter;stroke-opacity:1"
         d="m 144,872.29021 0,112.14394 z"
         id="path4123"
         inkscape:connector-curvature="0" />
      <path
         style="fill:none;stroke:#000000;stroke-width:1.81579924px;stroke-linecap:butt;stroke-linejoin:miter;stroke-opacity:1"
         d="m 144.5921,983.77008 -36.02266,62.39312 z"
         id="path4125"
         inkscape:connector-curvature="0" />
      <path
         inkscape:connector-curvature="0"
         id="path4127"
         d="m 144.4079,983.77008 36.02221,62.39312 z"
         style="fill:none;stroke:#000000;stroke-width:1.81578815px;stroke-linecap:butt;stroke-linejoin:miter;stroke-opacity:1" />
      <path
         style="fill:none;stroke:#000000;stroke-width:1.15714431px;stroke-linecap:butt;stroke-linejoin:miter;stroke-opacity:1"
         d="m 103.16949,919.36218 77.66102,0 z"
         id="path4129"
         inkscape:connector-curvature="0" />
    </g>
    <g
       id="g4143"
       transform="translate(607,-91)">
      <path
         sodipodi:type="arc"
         style="fill:#ffffff;fill-opacity:1;fill-rule:nonzero;stroke:#000000;stroke-width:1.5;stroke-miterlimit:4;stroke-opacity:1;stroke-dasharray:none"
         id="path4145"
         sodipodi:cx="216.5"
         sodipodi:cy="453.5"
         sodipodi:rx="54.5"
         sodipodi:ry="54.5"
         d="m 271,453.5 c 0,30.09952 -24.40048,54.5 -54.5,54.5 -30.09952,0 -54.5,-24.40048 -54.5,-54.5 0,-30.09952 24.40048,-54.5 54.5,-54.5 30.09952,0 54.5,24.40048 54.5,54.5 z"
         transform="matrix(0.67420814,0,0,0.67420814,-1.466063,531.10879)" />
      <path
         style="fill:none;stroke:#000000;stroke-width:0.92523545px;stroke-linecap:butt;stroke-linejoin:miter;stroke-opacity:1"
         d="m 144,872.29021 0,112.14394 z"
         id="path4147"
         inkscape:connector-curvature="0" />
      <path
         style="fill:none;stroke:#000000;stroke-width:1.81579924px;stroke-linecap:butt;stroke-linejoin:miter;stroke-opacity:1"
         d="m 144.5921,983.77008 -36.02266,62.39312 z"
         id="path4149"
         inkscape:connector-curvature="0" />
      <path
         inkscape:connector-curvature="0"
         id="path4151"
         d="m 144.4079,983.77008 36.02221,62.39312 z"
         style="fill:none;stroke:#000000;stroke-width:1.81578815px;stroke-linecap:butt;stroke-linejoin:miter;stroke-opacity:1" />
      <path
         style="fill:none;stroke:#000000;stroke-width:1.15714431px;stroke-linecap:butt;stroke-linejoin:miter;stroke-opacity:1"
         d="m 103.16949,919.36218 77.66102,0 z"
         id="path4153"
         inkscape:connector-curvature="0" />
    </g>
    <g
       id="g4193"
       transform="matrix(0,-1,1,0,-44.536005,1390.7548)">
      <path
         inkscape:connector-curvature="0"
         id="path4008-9"
         d="m 698.08902,766.31015 0,-58.32954 z"
         style="fill:none;stroke:#000000;stroke-width:0.81881291px;stroke-linecap:butt;stroke-linejoin:miter;stroke-opacity:1" />
      <path
         inkscape:connector-curvature="0"
         id="path4010-1"
         d="m 698.08902,708.14538 -12.95929,22.44615 z"
         style="fill:none;stroke:#000000;stroke-width:1px;stroke-linecap:butt;stroke-linejoin:miter;stroke-opacity:1" />
      <path
         style="fill:none;stroke:#000000;stroke-width:1px;stroke-linecap:butt;stroke-linejoin:miter;stroke-opacity:1"
         d="m 698.12973,708.14538 12.95929,22.44615 z"
         id="path4012-9"
         inkscape:connector-curvature="0" />
    </g>
    <text
       xml:space="preserve"
       style="font-size:40px;font-style:normal;font-variant:normal;font-weight:normal;font-stretch:normal;line-height:125%;letter-spacing:0px;word-spacing:0px;fill:#000000;fill-opacity:1;stroke:none;font-family:Musica;-inkscape-font-specification:Musica"
       x="725.08905"
       y="682.14539"
       id="text4014-9"
       sodipodi:linespacing="125%"><tspan
         sodipodi:role="line"
         id="tspan4016-2"
         x="725.08905"
         y="682.14539">x</tspan></text>
    <text
       xml:space="preserve"
       style="font-size:40px;font-style:normal;font-variant:normal;font-weight:normal;font-stretch:normal;line-height:125%;letter-spacing:0px;word-spacing:0px;fill:#000000;fill-opacity:1;stroke:none;font-family:Musica;-inkscape-font-specification:Musica"
       x="654.38867"
       y="367.04187"
       id="text4014-9-7"
       sodipodi:linespacing="125%"><tspan
         sodipodi:role="line"
         id="tspan4016-2-3"
         x="654.38867"
         y="367.04187">θ</tspan></text>
  </g>
</svg>
